<?xml version="1.0" standalone="no"?>
<!DOCTYPE svg PUBLIC "-//W3C//DTD SVG 20010904//EN"
 "http://www.w3.org/TR/2001/REC-SVG-20010904/DTD/svg10.dtd">
<svg version="1.0" xmlns="http://www.w3.org/2000/svg"
 width="256.000000pt" height="256.000000pt" viewBox="0 0 256.000000 256.000000"
 preserveAspectRatio="xMidYMid meet">
<metadata>
Created by potrace 1.14, written by Peter Selinger 2001-2017
</metadata>
<g transform="translate(0.000000,256.000000) scale(0.100000,-0.100000)"
fill="#000000" stroke="none">
<path d="M436 2233 c-23 -7 -51 -22 -64 -33 -23 -21 -53 -73 -51 -87 1 -4 1
-10 0 -13 -6 -16 -2 -1639 4 -1655 4 -11 12 -31 18 -45 6 -14 9 -29 8 -35 -2
-5 0 -7 4 -3 4 3 15 -1 26 -10 30 -26 95 -38 191 -36 58 1 85 -2 81 -9 -4 -6
-1 -7 8 -1 22 13 121 15 113 2 -5 -7 -2 -8 7 -2 22 13 121 15 113 2 -5 -7 -3
-8 7 -2 21 13 361 14 378 0 11 -8 13 -8 8 0 -5 9 8 12 43 11 30 0 47 -4 43
-10 -4 -6 -1 -7 8 -1 22 13 121 15 113 2 -5 -7 -2 -8 7 -2 22 13 121 15 113 2
-5 -7 -2 -8 7 -2 22 13 121 15 113 2 -5 -7 -2 -8 7 -2 23 14 121 15 112 1 -5
-9 -3 -9 8 -1 8 7 61 11 137 10 67 -1 122 1 122 4 0 7 62 33 73 31 5 -1 6 3 3
7 -3 5 3 17 14 27 11 10 20 26 20 37 0 10 3 18 8 18 4 0 6 23 5 50 -2 38 1 49
10 43 9 -5 9 -4 0 8 -8 10 -11 214 -10 801 1 432 -1 784 -5 781 -5 -2 -8 2 -8
10 0 13 -71 107 -74 99 0 -2 -17 -1 -37 3 -19 4 -397 7 -838 8 -605 2 -813 -1
-845 -10z"/>
</g>
</svg>
