<?xml version="1.0" standalone="no"?>
<!DOCTYPE svg PUBLIC "-//W3C//DTD SVG 20010904//EN"
 "http://www.w3.org/TR/2001/REC-SVG-20010904/DTD/svg10.dtd">
<svg version="1.0" xmlns="http://www.w3.org/2000/svg"
 width="204.000000pt" height="204.000000pt" viewBox="0 0 204.000000 204.000000"
 preserveAspectRatio="xMidYMid meet">
<metadata>
Created by potrace 1.14, written by Peter Selinger 2001-2017
</metadata>
<g transform="translate(0.000000,204.000000) scale(0.100000,-0.100000)"
fill="#000000" stroke="none">
<path d="M177 1956 c-21 -8 -47 -22 -59 -33 -49 -44 -48 -16 -48 -904 0 -940
-6 -873 80 -916 l44 -23 826 0 826 0 44 22 c86 44 80 -23 80 917 0 888 1 860
-48 904 -51 46 -51 46 -902 46 -654 0 -812 -2 -843 -13z m618 -657 c115 -198
212 -362 216 -364 3 -3 98 153 209 345 112 193 208 357 214 365 9 13 35 15
153 13 l142 -3 -76 -131 -76 -131 -60 -12 c-198 -41 -338 -212 -268 -327 11
-17 41 -49 67 -70 94 -76 144 -130 144 -157 0 -39 -13 -40 -50 -2 -36 37 -108
91 -113 84 -28 -40 -62 -100 -92 -159 l-36 -72 28 -30 c50 -53 98 -71 172 -66
143 11 246 102 271 240 8 50 9 48 6 -32 -3 -96 -22 -144 -78 -196 -55 -53
-114 -77 -199 -82 -89 -5 -120 7 -190 75 l-46 44 -58 -101 c-46 -81 -60 -99
-70 -88 -13 14 -705 1205 -705 1213 0 3 64 5 143 5 l143 0 209 -361z m763
-113 c4 -41 4 -41 107 -6 41 14 51 22 57 46 4 18 6 5 5 -36 l-2 -64 -70 -23
c-97 -31 -105 -30 -105 10 0 56 -34 73 -70 37 -24 -24 -40 -18 -40 13 0 25 25
59 55 75 30 16 59 -7 63 -52z"/>
</g>
</svg>
